<?xml version="1.0" encoding="UTF-8" standalone="no"?>
<!-- Created with Inkscape (http://www.inkscape.org/) -->

<svg
   xmlns:dc="http://purl.org/dc/elements/1.1/"
   xmlns:cc="http://creativecommons.org/ns#"
   xmlns:rdf="http://www.w3.org/1999/02/22-rdf-syntax-ns#"
   xmlns:svg="http://www.w3.org/2000/svg"
   xmlns="http://www.w3.org/2000/svg"
   xmlns:sodipodi="http://sodipodi.sourceforge.net/DTD/sodipodi-0.dtd"
   xmlns:inkscape="http://www.inkscape.org/namespaces/inkscape"
   width="210mm"
   height="297mm"
   viewBox="0 0 210 297"
   version="1.1"
   id="svg2508"
   inkscape:version="0.92.4 (5da689c313, 2019-01-14)"
   sodipodi:docname="Logo.svg">
  <defs
     id="defs2502" />
  <sodipodi:namedview
     id="base"
     pagecolor="#ffffff"
     bordercolor="#666666"
     borderopacity="1.0"
     inkscape:pageopacity="0.0"
     inkscape:pageshadow="2"
     inkscape:zoom="0.35"
     inkscape:cx="-260"
     inkscape:cy="560"
     inkscape:document-units="mm"
     inkscape:current-layer="layer1"
     showgrid="false"
     inkscape:window-width="1920"
     inkscape:window-height="1137"
     inkscape:window-x="-8"
     inkscape:window-y="-8"
     inkscape:window-maximized="1" />
  <metadata
     id="metadata2505">
    <rdf:RDF>
      <cc:Work
         rdf:about="">
        <dc:format>image/svg+xml</dc:format>
        <dc:type
           rdf:resource="http://purl.org/dc/dcmitype/StillImage" />
        <dc:title></dc:title>
      </cc:Work>
    </rdf:RDF>
  </metadata>
  <g
     inkscape:label="Ebene 1"
     inkscape:groupmode="layer"
     id="layer1">
    <g
       id="g2143"
       transform="translate(138.04167,76.635717)">
      <g
         transform="rotate(-90,25.999945,111.50714)"
         id="g2116">
        <path
           inkscape:connector-curvature="0"
           style="fill:#f0b224;stroke:none;stroke-width:0.99999994px;stroke-linecap:butt;stroke-linejoin:miter;stroke-opacity:1"
           d="M 30.236328,383.64844 7.5585938,421.44336 30.236328,459.24023 H 60.472656 V 444.12109 L 98.267578,421.44336 60.472656,398.76758 v -15.11914 z m 68.03125,37.79492 37.794922,22.67773 v 15.11914 h 30.23633 l 22.67773,-37.79687 -22.67773,-37.79492 H 136.0625 v 15.11914 z"
           transform="scale(0.26458333)"
           id="path2099" />
        <path
           inkscape:connector-curvature="0"
           style="fill:#fbe9c0;fill-opacity:1;stroke:none;stroke-width:0.99999994px;stroke-linecap:butt;stroke-linejoin:miter;stroke-opacity:1"
           d="m 98.267578,330.73633 -37.794922,22.67578 v 30.23633 h 15.117188 l 22.677734,37.79492 22.677732,-37.79492 h 15.11719 v -30.23633 z m 0,90.70703 -22.677734,37.79687 H 60.472656 v 30.23633 l 37.794922,22.67578 37.794922,-22.67578 v -30.23633 h -15.11719 z"
           id="path2097"
           transform="scale(0.26458333)" />
        <path
           inkscape:connector-curvature="0"
           id="path2080"
           style="fill:#f6cd70;fill-opacity:1;stroke:none;stroke-width:0.26458332px;stroke-linecap:butt;stroke-linejoin:miter;stroke-opacity:1"
           d="m 20,121.50714 h -4 v -4 l 10,-6 z m 6,-10 5.999999,10 c 0,0 4,0 4,0 v -4 z m 0,0 5.999999,-10 h 4 v 4 z m 0,0 -6,-10 h -4 v 4 z" />
        <path
           style="fill:none;stroke:none;stroke-width:0.26458332px;stroke-linecap:butt;stroke-linejoin:miter;stroke-opacity:1"
           d="m 26,111.50714 -10,6 v 12 l 10,6 9.999999,-6 v -12 z"
           id="path2093"
           inkscape:connector-curvature="0" />
      </g>
      <path
         sodipodi:nodetypes="ccccccccccccc"
         inkscape:connector-curvature="0"
         id="path2132"
         d="m 26,87.50714 -10,6.000001 v 11.999999 l 10,6 -10,6 v 12 l 10,6 9.999999,-6 v -12 l -9.999999,-6 9.999999,-6 V 93.507141 Z"
         style="fill:none;stroke:#000000;stroke-width:0.1;stroke-linecap:butt;stroke-linejoin:miter;stroke-miterlimit:4;stroke-dasharray:none;stroke-opacity:1" />
      <path
         style="fill:none;stroke:#000000;stroke-width:0.1;stroke-linecap:butt;stroke-linejoin:miter;stroke-miterlimit:4;stroke-dasharray:none;stroke-opacity:1"
         d="m 49.999999,111.50714 -6.000001,-10 H 31.999999 l -6,10 -6,-10 H 7.9999995 l -6,10 6,10 H 20 l 6,-10 6,10 h 11.999998 z"
         id="path2134"
         inkscape:connector-curvature="0"
         sodipodi:nodetypes="ccccccccccccc" />
    </g>
  </g>
</svg>
